<?xml version="1.0" encoding="UTF-8"?>
<!DOCTYPE svg PUBLIC "-//W3C//DTD SVG 1.1//EN"
    "http://www.w3.org/Graphics/SVG/1.1/DTD/svg11.dtd" >
<svg contentScriptType="text/ecmascript" width="1834.5728"
     xmlns:xlink="http://www.w3.org/1999/xlink" zoomAndPan="magnify"
     contentStyleType="text/css"
     viewBox="-887.000000 -631.000000 1834.572754 1143.000000" height="1143.0"
     preserveAspectRatio="xMidYMid meet" xmlns="http://www.w3.org/2000/svg"
     version="1.1">
    <g id="edges">
        <path fill="none" stroke-width="1.0"
              d="M 238.903442,48.186527 C 217.995544,11.447304 241.742554,-75.023346 278.481781,-95.931236"
              class="17_00000 18_00000" stroke-opacity="1.0" stroke="#ff999f"/>
        <path fill="none" stroke-width="1.0"
              d="M 278.481781,-95.931236 C 257.477783,-127.279510 272.994171,-205.807907 304.342468,-226.811905"
              class="18_00000 19_00000" stroke-opacity="1.0" stroke="#ff999f"/>
        <path fill="none" stroke-width="1.0"
              d="M 304.342468,-226.811905 C 284.333618,-252.744568 293.219299,-321.656860 319.151978,-341.665710"
              class="19_00000 20_00000" stroke-opacity="1.0" stroke="#ff999f"/>
        <path fill="none" stroke-width="1.0"
              d="M 319.151978,-341.665710 C 345.207306,-372.482758 430.515839,-379.625397 461.332886,-353.570068"
              class="20_00000 21_00000" stroke-opacity="1.0" stroke="#ff999f"/>
        <path fill="none" stroke-width="1.0"
              d="M 461.332886,-353.570068 C 490.734558,-374.592834 566.371277,-362.024506 587.394043,-332.622833"
              class="21_00000 22_00000" stroke-opacity="1.0" stroke="#ff999f"/>
        <path fill="none" stroke-width="1.0"
              d="M 587.394043,-332.622833 C 619.488708,-344.352386 685.225098,-313.804688 696.954651,-281.710022"
              class="22_00000 23_00000" stroke-opacity="1.0" stroke="#ff999f"/>
        <path fill="none" stroke-width="1.0"
              d="M 696.954651,-281.710022 C 730.737671,-284.312469 785.315857,-237.541580 787.918335,-203.758560"
              class="23_00000 24_00000" stroke-opacity="1.0" stroke="#ff999f"/>
        <path fill="none" stroke-width="1.0"
              d="M 787.918335,-203.758560 C 822.375244,-197.386093 864.501953,-136.141998 858.129517,-101.685066"
              class="24_00000 25_00000" stroke-opacity="1.0" stroke="#ff999f"/>
        <path fill="none" stroke-width="1.0"
              d="M 858.129517,-101.685066 C 892.778503,-86.035461 921.277527,-10.587617 905.627930,24.061348"
              class="25_00000 26_00000" stroke-opacity="1.0" stroke="#ff999f"/>
        <path fill="none" stroke-width="1.0"
              d="M 905.627930,24.061348 C 912.397705,44.000191 892.644043,84.063087 872.705200,90.832832"
              class="26_00000 27_00000" stroke-opacity="1.0" stroke="#ff999f"/>
        <path fill="none" stroke-width="1.0"
              d="M 905.627930,24.061348 C 930.729492,37.934071 947.572754,96.395508 933.700073,121.497093"
              class="26_00000 27_0000C" stroke-opacity="1.0" stroke="#ff999f"/>
        <path fill="none" stroke-width="1.0"
              d="M 872.705200,90.832832 C 879.661743,114.934349 853.944336,161.521423 829.842773,168.477966"
              class="27_00000 28_00000" stroke-opacity="1.0" stroke="#ff999f"/>
        <path fill="none" stroke-width="1.0"
              d="M -538.934082,-549.843018 C -557.419067,-504.024017 -653.875122,-463.022919 -699.694092,-481.507904"
              class="0_00000 1_00000" stroke-opacity="1.0" stroke="#ff999f"/>
        <path fill="none" stroke-width="1.0"
              d="M -699.694092,-481.507904 C -703.873169,-450.699310 -756.354614,-410.755005 -787.163208,-414.934082"
              class="1_00000 2_00000" stroke-opacity="1.0" stroke="#ff999f"/>
        <path fill="none" stroke-width="1.0"
              d="M -787.163208,-414.934082 C -778.575623,-384.822235 -810.862122,-326.773071 -840.973999,-318.185516"
              class="2_00000 3_00000" stroke-opacity="1.0" stroke="#ff999f"/>
        <path fill="none" stroke-width="1.0"
              d="M -840.973999,-318.185516 C -824.259888,-289.931396 -841.570007,-222.479050 -869.824158,-205.764969"
              class="3_00000 4_00000" stroke-opacity="1.0" stroke="#ff999f"/>
        <path fill="none" stroke-width="1.0"
              d="M -869.824158,-205.764969 C -840.653320,-174.007980 -844.532532,-82.616234 -876.289551,-53.445389"
              class="4_00000 5_00000" stroke-opacity="1.0" stroke="#ff999f"/>
        <path fill="none" stroke-width="1.0"
              d="M -876.289551,-53.445389 C -833.698730,-33.945015 -799.063171,59.191711 -818.563538,101.782494"
              class="5_00000 6_00000" stroke-opacity="1.0" stroke="#ff999f"/>
        <path fill="none" stroke-width="1.0"
              d="M -818.563538,101.782494 C -774.009888,94.159431 -695.744812,149.555328 -688.121704,194.108994"
              class="6_00000 7_00000" stroke-opacity="1.0" stroke="#ff999f"/>
        <path fill="none" stroke-width="1.0"
              d="M -688.121704,194.108994 C -644.537964,196.536362 -582.803345,265.553070 -585.230713,309.136841"
              class="7_00000 8_00000" stroke-opacity="1.0" stroke="#ff999f"/>
        <path fill="none" stroke-width="1.0"
              d="M -585.230713,309.136841 C -540.886292,304.017639 -466.690918,362.855408 -461.571716,407.199829"
              class="8_00000 9_00000" stroke-opacity="1.0" stroke="#ff999f"/>
        <path fill="none" stroke-width="1.0"
              d="M -461.571716,407.199829 C -415.483276,398.931641 -333.948395,455.661987 -325.680206,501.750427"
              class="9_00000 10_00000" stroke-opacity="1.0" stroke="#ff999f"/>
        <path fill="none" stroke-width="1.0"
              d="M -461.571716,407.199829 C -462.960388,378.692322 -422.282196,333.848022 -393.774689,332.459351"
              class="9_00000 10_0000C" stroke-opacity="1.0" stroke="#ff999f"/>
        <path fill="none" stroke-width="1.0"
              d="M -325.680206,501.750427 C -290.279694,440.882507 -145.877045,402.681335 -85.009102,438.081848"
              class="10_00000 11_00000" stroke-opacity="1.0" stroke="#ff999f"/>
        <path fill="none" stroke-width="1.0"
              d="M -85.009102,438.081848 C -103.206146,416.293854 -97.819740,356.316315 -76.031754,338.119263"
              class="11_00000 12_00000" stroke-opacity="1.0" stroke="#ff999f"/>
        <path fill="none" stroke-width="1.0"
              d="M -85.009102,438.081848 C -46.876419,407.576416 56.080757,419.017273 86.586197,457.149963"
              class="11_00000 12_0000A" stroke-opacity="1.0" stroke="#ff999f"/>
        <path fill="none" stroke-width="1.0"
              d="M -76.031754,338.119263 C -101.000031,312.114899 -99.445892,235.655945 -73.441536,210.687683"
              class="12_00000 13_00000" stroke-opacity="1.0" stroke="#ff999f"/>
        <path fill="none" stroke-width="1.0"
              d="M 829.842773,168.477966 C 835.727539,193.700699 806.720642,240.361969 781.497864,246.246750"
              class="28_00000 29_00000" stroke-opacity="1.0" stroke="#ff999f"/>
        <path fill="none" stroke-width="1.0"
              d="M 781.497864,246.246750 C 817.097290,299.907349 790.005493,433.797455 736.344910,469.396912"
              class="29_00000 SINK" stroke-opacity="1.0" stroke="#ff999f"/>
        <path fill="none" stroke-width="1.0"
              d="M -73.441536,210.687683 C -103.599625,182.206207 -106.114540,94.246872 -77.633072,64.088783"
              class="13_00000 14_00000" stroke-opacity="1.0" stroke="#ff999f"/>
        <path fill="none" stroke-width="1.0"
              d="M -77.633072,64.088783 C -85.772278,16.361294 -26.389862,-67.438766 21.337627,-75.577972"
              class="14_00000 15_00000" stroke-opacity="1.0" stroke="#ff999f"/>
        <path fill="none" stroke-width="1.0"
              d="M -77.633072,64.088783 C -115.990250,35.511879 -130.660675,-64.889252 -102.083771,-103.246437"
              class="14_00000 15_0000C" stroke-opacity="1.0" stroke="#ff999f"/>
        <path fill="none" stroke-width="1.0"
              d="M 21.337627,-75.577972 C 57.794868,-83.202187 123.917046,-39.952648 131.541260,-3.495409"
              class="15_00000 16_00000" stroke-opacity="1.0" stroke="#ff999f"/>
        <path fill="none" stroke-width="1.0"
              d="M 131.541260,-3.495409 C 163.350098,-14.631458 227.767395,16.377703 238.903442,48.186527"
              class="16_00000 17_00000" stroke-opacity="1.0" stroke="#ff999f"/>
        <path fill="none" stroke-width="1.0"
              d="M 933.700073,121.497093 C 947.430115,145.521133 931.989075,202.152222 907.965088,215.882248"
              class="27_0000C 28_000C0" stroke-opacity="1.0" stroke="#ff999f"/>
        <path fill="none" stroke-width="1.0"
              d="M 907.965088,215.882248 C 907.672180,244.115295 864.883301,286.025543 836.650208,285.732666"
              class="28_000C0 29_00C00" stroke-opacity="1.0" stroke="#ff999f"/>
        <path fill="none" stroke-width="1.0"
              d="M 836.650208,285.732666 C 853.322021,342.526581 793.138794,452.725128 736.344910,469.396912"
              class="29_00C00 SINK" stroke-opacity="1.0" stroke="#ff999f"/>
        <path fill="none" stroke-width="1.0"
              d="M -102.083771,-103.246437 C -135.397263,-129.919739 -145.357544,-219.899933 -118.684242,-253.213425"
              class="15_0000C 16_000C0" stroke-opacity="1.0" stroke="#ff999f"/>
        <path fill="none" stroke-width="1.0"
              d="M -118.684242,-253.213425 C -147.873444,-277.305847 -155.518616,-357.228302 -131.426178,-386.417511"
              class="16_000C0 17_00C00" stroke-opacity="1.0" stroke="#ff999f"/>
        <path fill="none" stroke-width="1.0"
              d="M -131.426178,-386.417511 C -104.635056,-421.930481 -11.178911,-435.013245 24.334063,-408.222137"
              class="17_00C00 18_0C000" stroke-opacity="1.0" stroke="#ff999f"/>
        <path fill="none" stroke-width="1.0"
              d="M 24.334063,-408.222137 C 57.254124,-435.276550 147.215805,-426.478058 174.270203,-393.557983"
              class="18_0C000 19_C0000" stroke-opacity="1.0" stroke="#ff999f"/>
        <path fill="none" stroke-width="1.0"
              d="M 174.270203,-393.557983 C 213.625000,-412.155884 300.554077,-381.020508 319.151978,-341.665710"
              class="19_C0000 20_00000" stroke-opacity="1.0" stroke="#ff999f"/>
        <path fill="none" stroke-width="1.0"
              d="M 361.746765,275.679169 C 329.013794,264.267548 297.031769,198.050659 308.443390,165.317688"
              class="15_0A000 16_A0000" stroke-opacity="1.0" stroke="#ff999f"/>
        <path fill="none" stroke-width="1.0"
              d="M 308.443390,165.317688 C 271.109161,155.799438 229.385193,85.520752 238.903442,48.186527"
              class="16_A0000 17_00000" stroke-opacity="1.0" stroke="#ff999f"/>
        <path fill="none" stroke-width="1.0"
              d="M 86.586197,457.149963 C 114.407051,420.206238 211.553955,406.521912 248.497681,434.342773"
              class="12_0000A 13_000A0" stroke-opacity="1.0" stroke="#ff999f"/>
        <path fill="none" stroke-width="1.0"
              d="M 248.497681,434.342773 C 266.950653,391.210175 359.328949,354.190704 402.461548,372.643677"
              class="13_000A0 14_00A00" stroke-opacity="1.0" stroke="#ff999f"/>
        <path fill="none" stroke-width="1.0"
              d="M 402.461548,372.643677 C 374.925690,361.393707 350.496796,303.215027 361.746765,275.679169"
              class="14_00A00 15_0A000" stroke-opacity="1.0" stroke="#ff999f"/>
        <path fill="none" stroke-width="1.0"
              d="M 402.461548,372.643677 C 433.464081,335.499329 535.684448,326.286682 572.828735,357.289246"
              class="14_00A00 15_0A00C" stroke-opacity="1.0" stroke="#ff999f"/>
        <path fill="none" stroke-width="1.0"
              d="M -212.302399,-486.988922 C -176.012863,-483.049866 -127.487144,-422.707031 -131.426178,-386.417511"
              class="16_A00C0 17_00C00" stroke-opacity="1.0" stroke="#ff999f"/>
        <path fill="none" stroke-width="1.0"
              d="M 572.828735,357.289246 C 627.953491,347.007538 726.063171,414.272125 736.344910,469.396912"
              class="15_0A00C SINK" stroke-opacity="1.0" stroke="#ff999f"/>
        <path fill="none" stroke-width="1.0"
              d="M -393.774689,332.459351 C -397.936646,307.024994 -366.028076,262.630493 -340.593719,258.468536"
              class="10_0000C 11_000C0" stroke-opacity="1.0" stroke="#ff999f"/>
        <path fill="none" stroke-width="1.0"
              d="M -340.593719,258.468536 C -344.226746,231.126297 -308.662933,184.663391 -281.320679,181.030380"
              class="11_000C0 12_00C00" stroke-opacity="1.0" stroke="#ff999f"/>
        <path fill="none" stroke-width="1.0"
              d="M -281.320679,181.030380 C -285.383209,150.553192 -245.761154,98.743622 -215.283966,94.681114"
              class="12_00C00 13_0C000" stroke-opacity="1.0" stroke="#ff999f"/>
        <path fill="none" stroke-width="1.0"
              d="M -215.283966,94.681114 C -216.622498,61.570095 -168.963776,9.895770 -135.852753,8.557237"
              class="13_0C000 14_C0000" stroke-opacity="1.0" stroke="#ff999f"/>
        <path fill="none" stroke-width="1.0"
              d="M -135.852753,8.557237 C -121.241714,-39.707882 -26.927490,-90.189011 21.337627,-75.577972"
              class="14_C0000 15_00000" stroke-opacity="1.0" stroke="#ff999f"/>
        <path fill="none" stroke-width="1.0"
              d="M -533.855957,-437.744537 C -535.293823,-411.432983 -576.917969,-374.122406 -603.229492,-375.560242"
              class="0_0000C 1_000C0" stroke-opacity="1.0" stroke="#ff999f"/>
        <path fill="none" stroke-width="1.0"
              d="M -603.229492,-375.560242 C -602.208008,-348.099518 -641.866943,-305.376282 -669.327637,-304.354828"
              class="1_000C0 2_00C00" stroke-opacity="1.0" stroke="#ff999f"/>
        <path fill="none" stroke-width="1.0"
              d="M -669.327637,-304.354828 C -666.125488,-277.248413 -701.981934,-231.785583 -729.088379,-228.583450"
              class="2_00C00 3_0C000" stroke-opacity="1.0" stroke="#ff999f"/>
        <path fill="none" stroke-width="1.0"
              d="M -729.088379,-228.583450 C -727.586243,-202.184402 -764.931580,-160.332596 -791.330688,-158.830460"
              class="3_0C000 4_C0000" stroke-opacity="1.0" stroke="#ff999f"/>
        <path fill="none" stroke-width="1.0"
              d="M -791.330688,-158.830460 C -787.245422,-120.761673 -838.220764,-57.530624 -876.289551,-53.445389"
              class="4_C0000 5_00000" stroke-opacity="1.0" stroke="#ff999f"/>
        <path fill="none" stroke-width="1.0"
              d="M -319.462708,-620.354614 C -349.254669,-562.358032 -480.937469,-520.051025 -538.934082,-549.843018"
              class="SOURCE 0_00000" stroke-opacity="1.0" stroke="#ff999f"/>
        <path fill="none" stroke-width="1.0"
              d="M -319.462708,-620.354614 C -271.357513,-615.113525 -207.061325,-535.094116 -212.302399,-486.988922"
              class="SOURCE 16_A00C0" stroke-opacity="1.0" stroke="#ff999f"/>
        <path fill="none" stroke-width="1.0"
              d="M -319.462708,-620.354614 C -325.819366,-540.953918 -454.455292,-431.387878 -533.855957,-437.744537"
              class="SOURCE 0_0000C" stroke-opacity="1.0" stroke="#ff999f"/>
    </g>
    <g id="nodes">
        <circle fill-opacity="1.0" fill="#ff999f" r="10.0" cx="238.90344"
                class="17_00000" cy="48.186527" stroke="#000000"
                stroke-opacity="1.0" stroke-width="1.0"/>
        <circle fill-opacity="1.0" fill="#ff999f" r="10.0" cx="278.48178"
                class="18_00000" cy="-95.93124" stroke="#000000"
                stroke-opacity="1.0" stroke-width="1.0"/>
        <circle fill-opacity="1.0" fill="#ff999f" r="10.0" cx="304.34247"
                class="19_00000" cy="-226.8119" stroke="#000000"
                stroke-opacity="1.0" stroke-width="1.0"/>
        <circle fill-opacity="1.0" fill="#ff999f" r="10.0" cx="319.15198"
                class="20_00000" cy="-341.6657" stroke="#000000"
                stroke-opacity="1.0" stroke-width="1.0"/>
        <circle fill-opacity="1.0" fill="#ff999f" r="10.0" cx="461.3329"
                class="21_00000" cy="-353.57007" stroke="#000000"
                stroke-opacity="1.0" stroke-width="1.0"/>
        <circle fill-opacity="1.0" fill="#ff999f" r="10.0" cx="587.39404"
                class="22_00000" cy="-332.62283" stroke="#000000"
                stroke-opacity="1.0" stroke-width="1.0"/>
        <circle fill-opacity="1.0" fill="#ff999f" r="10.0" cx="696.95465"
                class="23_00000" cy="-281.71002" stroke="#000000"
                stroke-opacity="1.0" stroke-width="1.0"/>
        <circle fill-opacity="1.0" fill="#ff999f" r="10.0" cx="787.91833"
                class="24_00000" cy="-203.75856" stroke="#000000"
                stroke-opacity="1.0" stroke-width="1.0"/>
        <circle fill-opacity="1.0" fill="#ff999f" r="10.0" cx="858.1295"
                class="25_00000" cy="-101.68507" stroke="#000000"
                stroke-opacity="1.0" stroke-width="1.0"/>
        <circle fill-opacity="1.0" fill="#ff999f" r="10.0" cx="905.6279"
                class="26_00000" cy="24.061348" stroke="#000000"
                stroke-opacity="1.0" stroke-width="1.0"/>
        <circle fill-opacity="1.0" fill="#ff999f" r="10.0" cx="872.7052"
                class="27_00000" cy="90.83283" stroke="#000000"
                stroke-opacity="1.0" stroke-width="1.0"/>
        <circle fill-opacity="1.0" fill="#ff999f" r="10.0" cx="-538.9341"
                class="0_00000" cy="-549.843" stroke="#000000"
                stroke-opacity="1.0" stroke-width="1.0"/>
        <circle fill-opacity="1.0" fill="#ff999f" r="10.0" cx="-699.6941"
                class="1_00000" cy="-481.5079" stroke="#000000"
                stroke-opacity="1.0" stroke-width="1.0"/>
        <circle fill-opacity="1.0" fill="#ff999f" r="10.0" cx="-787.1632"
                class="2_00000" cy="-414.93408" stroke="#000000"
                stroke-opacity="1.0" stroke-width="1.0"/>
        <circle fill-opacity="1.0" fill="#ff999f" r="10.0" cx="-840.974"
                class="3_00000" cy="-318.18552" stroke="#000000"
                stroke-opacity="1.0" stroke-width="1.0"/>
        <circle fill-opacity="1.0" fill="#ff999f" r="10.0" cx="-869.82416"
                class="4_00000" cy="-205.76497" stroke="#000000"
                stroke-opacity="1.0" stroke-width="1.0"/>
        <circle fill-opacity="1.0" fill="#ff999f" r="10.0" cx="-876.28955"
                class="5_00000" cy="-53.44539" stroke="#000000"
                stroke-opacity="1.0" stroke-width="1.0"/>
        <circle fill-opacity="1.0" fill="#ff999f" r="10.0" cx="-818.56354"
                class="6_00000" cy="101.78249" stroke="#000000"
                stroke-opacity="1.0" stroke-width="1.0"/>
        <circle fill-opacity="1.0" fill="#ff999f" r="10.0" cx="-688.1217"
                class="7_00000" cy="194.109" stroke="#000000"
                stroke-opacity="1.0" stroke-width="1.0"/>
        <circle fill-opacity="1.0" fill="#ff999f" r="10.0" cx="-585.2307"
                class="8_00000" cy="309.13684" stroke="#000000"
                stroke-opacity="1.0" stroke-width="1.0"/>
        <circle fill-opacity="1.0" fill="#ff999f" r="10.0" cx="-461.57172"
                class="9_00000" cy="407.19983" stroke="#000000"
                stroke-opacity="1.0" stroke-width="1.0"/>
        <circle fill-opacity="1.0" fill="#ff999f" r="10.0" cx="-325.6802"
                class="10_00000" cy="501.75043" stroke="#000000"
                stroke-opacity="1.0" stroke-width="1.0"/>
        <circle fill-opacity="1.0" fill="#ff999f" r="10.0" cx="-85.0091"
                class="11_00000" cy="438.08185" stroke="#000000"
                stroke-opacity="1.0" stroke-width="1.0"/>
        <circle fill-opacity="1.0" fill="#ff999f" r="10.0" cx="-76.03175"
                class="12_00000" cy="338.11926" stroke="#000000"
                stroke-opacity="1.0" stroke-width="1.0"/>
        <circle fill-opacity="1.0" fill="#ff999f" r="10.0" cx="829.8428"
                class="28_00000" cy="168.47797" stroke="#000000"
                stroke-opacity="1.0" stroke-width="1.0"/>
        <circle fill-opacity="1.0" fill="#ff999f" r="10.0" cx="781.49786"
                class="29_00000" cy="246.24675" stroke="#000000"
                stroke-opacity="1.0" stroke-width="1.0"/>
        <circle fill-opacity="1.0" fill="#ff999f" r="10.0" cx="-73.441536"
                class="13_00000" cy="210.68768" stroke="#000000"
                stroke-opacity="1.0" stroke-width="1.0"/>
        <circle fill-opacity="1.0" fill="#ff999f" r="10.0" cx="-77.63307"
                class="14_00000" cy="64.08878" stroke="#000000"
                stroke-opacity="1.0" stroke-width="1.0"/>
        <circle fill-opacity="1.0" fill="#ff999f" r="10.0" cx="21.337627"
                class="15_00000" cy="-75.57797" stroke="#000000"
                stroke-opacity="1.0" stroke-width="1.0"/>
        <circle fill-opacity="1.0" fill="#ff999f" r="10.0" cx="131.54126"
                class="16_00000" cy="-3.495409" stroke="#000000"
                stroke-opacity="1.0" stroke-width="1.0"/>
        <circle fill-opacity="1.0" fill="#ff999f" r="10.0" cx="933.7001"
                class="27_0000C" cy="121.49709" stroke="#000000"
                stroke-opacity="1.0" stroke-width="1.0"/>
        <circle fill-opacity="1.0" fill="#ff999f" r="10.0" cx="907.9651"
                class="28_000C0" cy="215.88225" stroke="#000000"
                stroke-opacity="1.0" stroke-width="1.0"/>
        <circle fill-opacity="1.0" fill="#ff999f" r="10.0" cx="836.6502"
                class="29_00C00" cy="285.73267" stroke="#000000"
                stroke-opacity="1.0" stroke-width="1.0"/>
        <circle fill-opacity="1.0" fill="#ff999f" r="10.0" cx="-102.08377"
                class="15_0000C" cy="-103.24644" stroke="#000000"
                stroke-opacity="1.0" stroke-width="1.0"/>
        <circle fill-opacity="1.0" fill="#ff999f" r="10.0" cx="-118.68424"
                class="16_000C0" cy="-253.21342" stroke="#000000"
                stroke-opacity="1.0" stroke-width="1.0"/>
        <circle fill-opacity="1.0" fill="#ff999f" r="10.0" cx="-131.42618"
                class="17_00C00" cy="-386.4175" stroke="#000000"
                stroke-opacity="1.0" stroke-width="1.0"/>
        <circle fill-opacity="1.0" fill="#ff999f" r="10.0" cx="24.334063"
                class="18_0C000" cy="-408.22214" stroke="#000000"
                stroke-opacity="1.0" stroke-width="1.0"/>
        <circle fill-opacity="1.0" fill="#ff999f" r="10.0" cx="174.2702"
                class="19_C0000" cy="-393.55798" stroke="#000000"
                stroke-opacity="1.0" stroke-width="1.0"/>
        <circle fill-opacity="1.0" fill="#ff999f" r="10.0" cx="361.74677"
                class="15_0A000" cy="275.67917" stroke="#000000"
                stroke-opacity="1.0" stroke-width="1.0"/>
        <circle fill-opacity="1.0" fill="#ff999f" r="10.0" cx="308.4434"
                class="16_A0000" cy="165.31769" stroke="#000000"
                stroke-opacity="1.0" stroke-width="1.0"/>
        <circle fill-opacity="1.0" fill="#ff999f" r="10.0" cx="86.5862"
                class="12_0000A" cy="457.14996" stroke="#000000"
                stroke-opacity="1.0" stroke-width="1.0"/>
        <circle fill-opacity="1.0" fill="#ff999f" r="10.0" cx="248.49768"
                class="13_000A0" cy="434.34277" stroke="#000000"
                stroke-opacity="1.0" stroke-width="1.0"/>
        <circle fill-opacity="1.0" fill="#ff999f" r="10.0" cx="402.46155"
                class="14_00A00" cy="372.64368" stroke="#000000"
                stroke-opacity="1.0" stroke-width="1.0"/>
        <circle fill-opacity="1.0" fill="#ff999f" r="10.0" cx="-212.3024"
                class="16_A00C0" cy="-486.98892" stroke="#000000"
                stroke-opacity="1.0" stroke-width="1.0"/>
        <circle fill-opacity="1.0" fill="#ff999f" r="10.0" cx="572.82874"
                class="15_0A00C" cy="357.28925" stroke="#000000"
                stroke-opacity="1.0" stroke-width="1.0"/>
        <circle fill-opacity="1.0" fill="#ff999f" r="10.0" cx="-393.7747"
                class="10_0000C" cy="332.45935" stroke="#000000"
                stroke-opacity="1.0" stroke-width="1.0"/>
        <circle fill-opacity="1.0" fill="#ff999f" r="10.0" cx="-340.59372"
                class="11_000C0" cy="258.46854" stroke="#000000"
                stroke-opacity="1.0" stroke-width="1.0"/>
        <circle fill-opacity="1.0" fill="#ff999f" r="10.0" cx="-281.32068"
                class="12_00C00" cy="181.03038" stroke="#000000"
                stroke-opacity="1.0" stroke-width="1.0"/>
        <circle fill-opacity="1.0" fill="#ff999f" r="10.0" cx="-215.28397"
                class="13_0C000" cy="94.681114" stroke="#000000"
                stroke-opacity="1.0" stroke-width="1.0"/>
        <circle fill-opacity="1.0" fill="#ff999f" r="10.0" cx="-135.85275"
                class="14_C0000" cy="8.557237" stroke="#000000"
                stroke-opacity="1.0" stroke-width="1.0"/>
        <circle fill-opacity="1.0" fill="#ff999f" r="10.0" cx="-533.85596"
                class="0_0000C" cy="-437.74454" stroke="#000000"
                stroke-opacity="1.0" stroke-width="1.0"/>
        <circle fill-opacity="1.0" fill="#ff999f" r="10.0" cx="-603.2295"
                class="1_000C0" cy="-375.56024" stroke="#000000"
                stroke-opacity="1.0" stroke-width="1.0"/>
        <circle fill-opacity="1.0" fill="#ff999f" r="10.0" cx="-669.32764"
                class="2_00C00" cy="-304.35483" stroke="#000000"
                stroke-opacity="1.0" stroke-width="1.0"/>
        <circle fill-opacity="1.0" fill="#ff999f" r="10.0" cx="-729.0884"
                class="3_0C000" cy="-228.58345" stroke="#000000"
                stroke-opacity="1.0" stroke-width="1.0"/>
        <circle fill-opacity="1.0" fill="#ff999f" r="10.0" cx="-791.3307"
                class="4_C0000" cy="-158.83046" stroke="#000000"
                stroke-opacity="1.0" stroke-width="1.0"/>
        <circle fill-opacity="1.0" fill="#ff999f" r="10.0" cx="-319.4627"
                class="SOURCE" cy="-620.3546" stroke="#000000"
                stroke-opacity="1.0" stroke-width="1.0"/>
        <circle fill-opacity="1.0" fill="#ff999f" r="10.0" cx="736.3449"
                class="SINK" cy="469.3969" stroke="#000000" stroke-opacity="1.0"
                stroke-width="1.0"/>
    </g>
</svg>